<svg width="930" height="498" viewBox="0 0 930 498" fill="none" xmlns="http://www.w3.org/2000/svg">
<path d="M465.382 405.791L217.289 368.652V444.257L465.382 490.9V405.791Z" fill="black" stroke="#25BF22" stroke-width="11.1861"/>
<path d="M713.476 348.973L465.383 411.998V490.701L713.476 426.78V348.973Z" fill="black" stroke="#25BF22" stroke-width="11.1861"/>
<path d="M465.381 409.202L213.094 367.853L470.827 318.353L717.868 347.478L465.381 409.202Z" fill="black" stroke="#25BF22" stroke-width="11.1861"/>
<path d="M555.069 8.03271L369.734 47.244L372.798 74.2017L555.069 34.0714V8.03271Z" fill="black" stroke="#25BF22" stroke-width="11.1861"/>
<path d="M428.618 108.916L448.065 115.399L440.59 106.812C443.502 106.111 447.063 105.259 451.167 104.28C454.087 103.584 457.28 102.823 460.706 102.007C471.584 99.4156 484.805 96.2661 499.08 92.8354C536.598 83.819 581.515 72.8322 610.461 64.8912L616.602 63.2066L614.14 57.3344C613.026 54.6795 610.659 51.7951 607.828 49.1074C604.862 46.292 600.94 43.2726 596.176 40.4331C586.708 34.7889 573.712 29.737 557.95 28.5182C557.455 28.4504 557.061 28.463 556.949 28.4666L556.943 28.4668C556.607 28.4775 556.303 28.5147 556.148 28.5344C555.779 28.5815 555.325 28.656 554.85 28.7395C553.87 28.9117 552.469 29.1808 550.722 29.5296C547.213 30.23 542.153 31.282 535.916 32.602C523.434 35.2435 506.161 38.974 486.98 43.1497C448.615 51.5018 402.581 61.6431 371.893 68.4344L372.511 79.4571C383.21 80.5933 409.276 87.8791 426.168 107.283L426.205 107.25C426.984 107.981 428.121 108.719 428.618 108.916Z" fill="black" stroke="#25BF22" stroke-width="11.1861"/>
<path d="M627.06 40.5046L438.969 78.7969C462.496 94.4814 481.039 139.248 487.37 159.67L671.479 118.927C667.068 88.0483 640.029 53.7793 627.06 40.5046Z" fill="black" stroke="#25BF22" stroke-width="11.1861" stroke-linejoin="bevel"/>
<path d="M659.613 125.696L658.001 120.978L653.129 122.04L469.02 162.17L463.254 163.427L464.818 169.117C473.39 200.311 472.153 233.484 470.488 245.928L469.433 253.809L477.206 252.138C508.096 245.501 554.447 235.529 593.107 227.186C612.436 223.015 629.845 219.25 642.438 216.512C648.734 215.144 653.831 214.031 657.363 213.252C659.128 212.863 660.511 212.555 661.462 212.34C661.934 212.233 662.316 212.145 662.591 212.079C662.723 212.048 662.862 212.014 662.985 211.982C663.037 211.968 663.144 211.94 663.265 211.903C663.316 211.888 663.453 211.846 663.621 211.784C663.712 211.748 663.945 211.651 664.086 211.586C664.339 211.457 665.13 210.936 665.627 210.495L666.988 209.134L667.223 207.224C671.517 172.371 664.002 138.543 659.613 125.696Z" fill="black" stroke="#25BF22" stroke-width="11.1861"/>
<path d="M391.53 326.059L386.566 327.131L387.156 332.176L389.91 355.719L390.618 361.769L396.585 360.549L583.76 322.301L588.744 321.283L588.202 316.226L585.445 290.493L584.782 284.309L578.702 285.622L391.53 326.059Z" fill="black" stroke="#25BF22" stroke-width="11.1861"/>
<path d="M679.441 216.036L495.944 257.086C490.063 298.993 470.416 324.174 461.328 331.526C521.983 318.353 643.783 292.131 645.744 292.621C666.575 279.387 676.888 236.05 679.441 216.036Z" fill="black" stroke="#25BF22" stroke-width="11.1861" stroke-linejoin="bevel"/>
<path d="M271.094 148.642L291.006 156.606C291.006 154.156 293.354 144.149 294.375 140.983L271.094 148.642Z" fill="black"/>
<path d="M496.375 254.762L473.766 240.211L661.733 197.664L673.918 213.644L496.375 254.762Z" fill="black" stroke="#25BF22" stroke-width="11.1861"/>
<path d="M291.007 156.913C294.07 140.269 304.608 104.958 322.253 96.8708C321.763 96.3806 311.429 81.1454 306.324 73.5891C315.412 63.2757 340.878 43.568 370.042 47.244C370.042 47.244 371.778 64.6032 372.799 73.5891C385.46 75.3249 414.701 83.758 430.386 103.605C430.535 103.032 436.31 87.2051 439.274 79.1032C453.366 86.149 476.892 119.54 487.676 159.976C487.676 159.976 475.626 164.674 469.908 167.329C473.788 180.705 480.385 215.485 475.728 247.589C475.728 247.589 488.799 253.001 495.028 256.473C492.475 275.772 482.1 317.679 461.024 330.913L446.626 309.776C441.112 316.821 393.63 330.913 393.63 330.913C393.63 330.913 392.85 348.875 393.667 358.066C375.9 356.636 339.163 348.436 325.929 325.399C325.684 325.154 333.179 310.797 336.957 303.649C326.133 291.906 303.138 262.355 297.746 238.093C297.991 237.602 286.003 242.994 279.978 245.751C272.831 228.8 261.231 185.77 272.014 149.255C271.769 148.764 284.574 154.156 291.007 156.913Z" fill="black"/>
<path d="M430.39 103.61C414.706 83.7595 385.461 75.325 372.799 73.5891C371.778 64.6032 370.042 47.244 370.042 47.244C340.878 43.568 315.412 63.2757 306.324 73.5891C311.429 81.1454 321.763 96.3806 322.253 96.8708C304.608 104.958 294.07 140.269 291.007 156.913C284.574 154.156 271.769 148.764 272.014 149.255C261.231 185.77 272.831 228.8 279.978 245.751C286.003 242.994 297.991 237.602 297.746 238.093C303.138 262.355 326.133 291.906 336.957 303.649C333.179 310.797 325.684 325.154 325.929 325.399C339.163 348.436 375.9 356.636 393.667 358.066C392.85 348.875 393.63 330.913 393.63 330.913C393.63 330.913 441.112 316.821 446.626 309.776L461.024 330.913C482.1 317.679 492.475 275.772 495.028 256.473C488.799 253.001 475.728 247.589 475.728 247.589C480.385 215.485 473.788 180.705 469.908 167.329C475.626 164.674 487.676 159.976 487.676 159.976C476.892 119.54 453.366 86.149 439.274 79.1032M430.39 103.61C430.145 104.1 436.211 87.4764 439.274 79.1032M430.39 103.61L439.274 79.1032" stroke="#25BF22" stroke-width="11.1861"/>
<path d="M401.463 154.787L399.851 149.05L394.227 151.023L341.844 169.403L337.004 171.101L338.277 176.069L357.27 250.202L358.711 255.825L364.276 254.177L419.111 237.941L424.4 236.375L422.907 231.065L401.463 154.787Z" fill="black" stroke="#25BF22" stroke-width="11.1861"/>
<path d="M654.933 127.504L470.211 167.022L487.672 159.363L671.781 119.233L654.933 127.504Z" fill="black" stroke="#25BF22" stroke-width="11.1861" stroke-linejoin="bevel"/>
<path d="M542.203 6.50098L363.305 46.2517L370.96 47.2439L554.867 8.099L542.203 6.50098Z" fill="black" stroke="#25BF22" stroke-width="11.1861"/>
<path d="M103.651 41.1006H172.017V246.621H217.316V279.336H172.017V334.701H136.785V279.336H0.890625V230.682L103.651 41.1006ZM31.0895 241.587V246.621H136.785V56.2H131.752L31.0895 241.587Z" fill="#25BF22"/>
<path d="M816.252 61.5005H884.619V267.021H929.917V299.736H884.619V355.1H849.387V299.736H713.492V251.082L816.252 61.5005ZM743.691 261.987V267.021H849.387V76.5999H844.354L743.691 261.987Z" fill="#25BF22"/>
<path d="M816.252 61.5005H884.619V267.021H929.917V299.736H884.619V355.1H849.387V299.736H713.492V251.082L816.252 61.5005ZM743.691 261.987V267.021H849.387V76.5999H844.354L743.691 261.987Z" stroke="black"/>
</svg>
