<svg width="2345" height="2345" viewBox="0 0 2345 2345" fill="none" xmlns="http://www.w3.org/2000/svg">
<path d="M1545.72 1550.31C1545.77 1553.4 1545.8 1556.47 1545.81 1559.52M1545.72 1550.31C1545.22 1520.34 1542.95 1490.15 1539 1459.9M1545.72 1550.31L1545.81 1559.52M883.104 616.205C846.646 602.755 810.941 592.757 776.217 586.048M883.104 616.205C912.712 627.128 941.893 639.987 970.52 654.602M883.104 616.205L776.217 586.048M883.104 616.205L970.52 654.602M1316.86 1475.06C1316.74 1527.76 1307.96 1575.02 1291.93 1615.85M1316.86 1475.06L1441.9 1521.19M1316.86 1475.06L1291.93 1615.85M1235.49 1178.32C1183.68 1083.33 1110.42 997.841 1025.48 935.612M1235.49 1178.32L1417.3 1101.35M1235.49 1178.32L1752.49 852.318M1025.48 935.612L1091.6 729.025M1025.48 935.612L1542.48 609.612M1236.5 1705.08C1259.6 1680.34 1278.36 1650.4 1291.93 1615.85M1236.5 1705.08L1379.61 1865.73L1424.63 1916.27M1236.5 1705.08L1291.93 1615.85M677.157 575.647C709.091 576.056 742.182 579.472 776.217 586.048M677.157 575.647L731.403 751.733L745.241 796.654M677.157 575.647C677.157 575.647 756.048 525.902 806.597 494.027M677.157 575.647L776.217 586.048M677.157 575.647L806.597 494.027M1091.6 729.025C1066.43 710.816 1040.6 693.932 1014.23 678.522C1012.32 677.402 1010.4 676.29 1008.47 675.185C995.94 667.985 983.285 661.119 970.52 654.602M1091.6 729.025L1608.6 403.025M1545.81 1559.52L1564.67 1547.63L1781.73 1410.76M1545.81 1559.52L1441.9 1521.19M1417.3 1101.35L1767.2 880.718L1934.3 775.352M1417.3 1101.35C1461.07 1180.56 1495.17 1264.14 1517.21 1348.73C1526.85 1385.69 1534.18 1422.84 1539 1459.9M1424.63 1916.27C1344.73 2003.6 1230.32 2049.83 1096.65 2044.14L1022.48 1785.92C984.65 1783.96 944.483 1775.62 902.793 1760.31M1424.63 1916.27L1941.63 1590.27L1781.73 1410.76M367.214 1510.27C447.971 1659.39 563.009 1793.52 696.509 1890.39M367.214 1510.27L550.859 1436.59C545.216 1426.04 539.838 1415.39 534.738 1404.63M367.214 1510.27L534.738 1404.63M696.509 1890.39L763.019 1684.08C806.712 1716.18 853.507 1742.13 902.072 1760.05C902.312 1760.14 902.552 1760.22 902.793 1760.31M696.509 1890.39L902.793 1760.31M355.098 714.713L546.645 921.882C579.069 884.607 620.815 858.215 669.27 844.559M355.098 714.713C284.205 798.05 243.018 915.767 243.405 1059.45L472.361 1144.35C472.348 1147.66 472.369 1151 472.425 1154.36C473.809 1237.85 496.444 1323.9 534.738 1404.63M355.098 714.713L872.099 388.713L909.486 429.15M1752.49 852.318C1700.68 757.332 1627.42 671.841 1542.48 609.612M1752.49 852.318L1934.3 775.352M1542.48 609.612L1608.6 403.025M1539.48 1459.92C1539.32 1459.91 1539.16 1459.9 1539 1459.9M1608.6 403.025C1542.92 355.513 1472.8 317.024 1400.1 290.205C1327.91 263.572 1258.67 250.472 1194.16 249.647L909.486 429.15M1934.3 775.352C2012.8 917.413 2060.22 1073.57 2062.72 1224.31C2062.77 1227.4 2062.8 1230.47 2062.81 1233.52L1781.73 1410.76M1291.93 1615.85L1441.9 1521.19M909.486 429.15C909.486 429.15 846.778 468.691 806.597 494.027M745.241 796.654L756.724 833.928C725.767 833.242 696.462 836.895 669.27 844.559M745.241 796.654L669.27 844.559" stroke="white" stroke-width="44"/>
<path d="M712 1242.19L879.177 1125.67L1046.35 1365.54L879.177 1482.06L712 1242.19Z" stroke="white" stroke-width="44"/>
</svg>
