<svg width="2345" height="2345" viewBox="0 0 2345 2345" fill="none" xmlns="http://www.w3.org/2000/svg">
<path d="M879 391.5L367 717L599.5 1092L704.5 1880L913.5 1752L1245 1708.5L1422.5 1912L1937 1586.5L1777 1417.5L2065 1231.5C2067.4 1071.1 1980.67 862.333 1937 778C1877 803.167 1755.2 852.4 1748 848C1726.8 780.8 1605.5 664.667 1547.5 615C1563 540.5 1595.2 391.5 1600 391.5C1490.8 301.1 1279.17 258.833 1187 249L913.5 435L879 391.5Z" fill="#FFBF1A" stroke="black"/>
<path d="M1609.5 408.5L1093 728L1031 932.5L1541 615.5L1609.5 408.5Z" fill="#BA7309"/>
<path d="M1921.5 777.5L1753 853.5L1260.5 1167L1415 1105.5L1921.5 777.5Z" fill="#C47B0D"/>
<path d="M1301 1610L1316.5 1474L1439 1526.5L1301 1610Z" fill="#C47B0D"/>
<path d="M395 1491.5L539 1403.5L551 1437L395 1491.5Z" fill="#C47B0D"/>
<path d="M747.5 791L699.5 831.5H757L747.5 791Z" fill="#C47B0D"/>
<path fill-rule="evenodd" clip-rule="evenodd" d="M356 719.5L549 921.5L610 871L678 844.5H757L678 579.5L766 586L860 608L939 643L1066.5 706.5L1086 730.5L1020.5 939L1119 1018L1189 1110L1228.5 1178L1415 1110L1502.5 1290L1542 1441V1559.5L1314 1472C1309.33 1542.67 1287.4 1688.8 1237 1708C1230.2 1708.4 1357.83 1844.17 1422.5 1912C1393 1957.33 1286.8 2047 1098 2043C1092 2042.2 1045.83 1872 1023.5 1787C952 1774.5 799.6 1736.3 762 1683.5C758.8 1679.1 714.667 1816 693 1885C592.833 1802.5 387.5 1611.7 367.5 1508.5C365.1 1507.3 492.167 1459.33 556 1435.5C524.5 1381 463.2 1246.1 470 1142.5C466.8 1141.3 316 1085.67 241 1058C249.5 959 284.4 752.7 356 719.5ZM880 1127L716 1237.5L880 1487.5L1050.5 1373.5L880 1127Z" fill="#FDE937"/>
<path d="M981 1265.5L729.5 1249L714.5 1236L876.5 1130L981 1265.5Z" fill="#BA7309"/>
<path d="M1235.49 1178.32C1183.68 1083.33 1110.42 997.842 1025.48 935.613M1235.49 1178.32L1417.3 1101.35M1235.49 1178.32L1752.49 852.318M1025.48 935.613L1091.6 729.025M1025.48 935.613L1542.48 609.613M677.157 575.648C709.091 576.056 742.183 579.472 776.218 586.048C810.941 592.757 846.647 602.755 883.105 616.205C912.712 627.128 941.893 639.987 970.521 654.602C983.285 661.119 995.94 667.985 1008.47 675.185C1010.4 676.29 1012.32 677.402 1014.23 678.523C1040.61 693.932 1066.43 710.816 1091.6 729.025M677.157 575.648L731.403 751.733L745.242 796.654M677.157 575.648L806.598 494.028L909.486 429.15M1091.6 729.025L1608.6 403.025M1545.81 1559.52C1545.8 1556.47 1545.77 1553.4 1545.72 1550.32C1545.22 1520.34 1542.95 1490.15 1539 1459.9M1545.81 1559.52L1564.67 1547.63L1781.73 1410.76M1545.81 1559.52L1441.9 1521.19M1417.3 1101.35L1767.2 880.718L1934.3 775.352M1417.3 1101.35C1461.07 1180.56 1495.17 1264.14 1517.21 1348.73C1526.85 1385.69 1534.18 1422.84 1539 1459.9M1424.63 1916.27C1344.73 2003.6 1230.32 2049.83 1096.65 2044.14L1022.48 1785.92C984.65 1783.96 944.484 1775.62 902.793 1760.31M1424.63 1916.27L1941.63 1590.27L1781.73 1410.76M1424.63 1916.27L1379.61 1865.73L1236.5 1705.08C1259.6 1680.34 1278.36 1650.4 1291.93 1615.85M367.214 1510.27C447.972 1659.39 563.009 1793.52 696.51 1890.39M367.214 1510.27L550.859 1436.59C545.217 1426.04 539.839 1415.39 534.738 1404.63M367.214 1510.27L534.738 1404.63M696.51 1890.39L763.02 1684.08C806.712 1716.18 853.507 1742.13 902.072 1760.05C902.312 1760.14 902.553 1760.23 902.793 1760.31M696.51 1890.39L902.793 1760.31M355.099 714.713L546.645 921.882C579.069 884.607 620.815 858.215 669.27 844.559M355.099 714.713C284.206 798.05 243.018 915.767 243.405 1059.45L472.362 1144.35C472.348 1147.66 472.369 1151 472.425 1154.36C473.81 1237.85 496.445 1323.9 534.738 1404.63M355.099 714.713L872.099 388.713L909.486 429.15M1752.49 852.318C1700.68 757.332 1627.42 671.842 1542.48 609.613M1752.49 852.318L1934.3 775.352M1542.48 609.613L1608.6 403.025M1539.48 1459.92C1539.32 1459.91 1539.16 1459.9 1539 1459.9M1608.6 403.025C1542.92 355.514 1472.8 317.024 1400.1 290.205C1327.91 263.572 1258.67 250.473 1194.16 249.648L909.486 429.15M1934.3 775.352C2012.8 917.414 2060.22 1073.57 2062.72 1224.32C2062.77 1227.4 2062.8 1230.47 2062.81 1233.52L1781.73 1410.76M1291.93 1615.85C1307.96 1575.02 1316.74 1527.76 1316.86 1475.06L1441.9 1521.19M1291.93 1615.85L1441.9 1521.19M745.242 796.654L756.724 833.928C725.768 833.242 696.462 836.895 669.27 844.559M745.242 796.654L669.27 844.559" stroke="black" stroke-width="20"/>
<path d="M712 1242.19L879.177 1125.67L1046.35 1365.54L879.177 1482.06L712 1242.19Z" stroke="black" stroke-width="20"/>
</svg>
