<svg width="512" height="252" viewBox="0 0 512 252" fill="none" xmlns="http://www.w3.org/2000/svg">
<path d="M163.088 213.853C156.936 211.972 152.717 210.636 152.561 210.519L152.301 210.324L153.165 206.217C154.636 199.217 157.008 185.282 157.253 182.195C157.429 179.981 157.399 173.817 157.202 171.741C156.681 166.24 155.825 162.373 154.594 159.961C153.694 158.198 153.246 157.809 151.668 157.42C149.958 156.999 149.475 157.11 141.894 159.672C139.446 160.5 133.572 162.518 128.841 164.157C124.11 165.796 118.06 167.882 115.397 168.793C107.322 171.555 94.9845 175.792 81.3197 180.494C74.1845 182.95 65.6815 185.866 62.4241 186.975C55.3928 189.368 53.8189 189.917 49.3572 191.539C44.379 193.349 39.5774 194.977 36.6189 195.86C35.6624 196.145 34.4547 196.528 33.9352 196.71C32.8448 197.093 31.7862 197.387 29.8034 197.859C28.6262 198.14 28.152 198.204 26.9328 198.251C25.1844 198.317 24.316 198.208 22.981 197.756C20.9874 197.08 19.809 196.354 18.7503 195.15C17.835 194.109 17.5084 193.64 17.2149 192.945C16.768 191.887 17.0083 191.771 18.0279 192.553C20.2827 194.281 23.4555 195.016 26.607 194.54C27.906 194.344 30.5525 193.671 32.9158 192.937C35.4306 192.156 50.4225 186.222 58.1464 182.951C61.1194 181.692 73.43 176.519 85.5027 171.456C106.166 162.79 116.64 158.394 122.636 155.868C124.058 155.269 128.034 153.608 131.473 152.177C140.511 148.414 147.054 145.661 149.851 144.446C154.929 142.239 156.254 141.79 158.265 141.594C159.167 141.506 159.483 141.513 160.174 141.637C161.683 141.906 163.288 142.895 165.04 144.637C166.092 145.683 166.306 145.974 170.578 152.158C173.022 155.696 175.073 158.647 175.137 158.716C175.23 158.816 175.381 158.663 175.928 157.912C176.3 157.401 177.018 156.344 177.523 155.564C180.607 150.798 183.713 148.466 186.749 148.637C187.761 148.694 189.21 149.085 190.184 149.564C191.056 149.992 192.234 150.907 193.007 151.757C193.64 152.453 194.928 154.162 194.928 154.306C194.928 154.361 195.423 155.326 196.027 156.451C196.631 157.576 197.25 158.731 197.402 159.017C197.554 159.303 197.75 159.644 197.838 159.774C197.926 159.904 198.094 160.223 198.213 160.483C198.529 161.179 209.568 181.876 209.92 182.432C210.084 182.692 210.329 183.128 210.465 183.401C211.192 184.862 214.964 191.517 215.395 192.098C216.479 193.562 217.871 194.622 219.229 195.021C220.02 195.253 221.241 195.252 221.955 195.02C222.266 194.919 223.81 194.18 225.387 193.377C226.964 192.575 228.666 191.71 229.169 191.456C230.191 190.939 230.126 191.08 229.754 190.189C229.689 190.033 229.572 189.714 229.494 189.48C229.361 189.077 229.281 188.87 229.002 188.202C228.937 188.046 228.818 187.727 228.737 187.493C228.657 187.259 228.459 186.705 228.297 186.263C228.034 185.542 227.598 184.236 227.082 182.621C226.816 181.786 226.341 180.034 226.18 179.293C224.961 173.685 224.717 171.376 224.718 165.45C224.719 162.254 224.936 160.406 225.71 157.03C226.156 155.085 226.45 154.083 226.961 152.772C228.098 149.852 229.548 147.617 231.723 145.434C233.786 143.364 235.245 142.373 239.112 140.418C241.306 139.309 241.495 139.219 242.308 138.911C242.541 138.823 242.795 138.72 242.872 138.681C242.95 138.643 243.267 138.536 243.577 138.444C243.888 138.352 244.293 138.221 244.477 138.153C246.194 137.517 250.699 136.614 253.731 136.299C255.412 136.124 259.198 136.149 260.687 136.345C265.982 137.042 270.014 138.854 273.74 142.211C274.521 142.914 276.835 145.467 277.353 146.197C277.39 146.249 277.547 146.462 277.702 146.67C279.504 149.087 280.826 151.886 281.791 155.327C281.843 155.509 282.057 156.232 282.268 156.935C282.635 158.157 283.448 161.402 283.671 162.535L283.777 163.073L285.393 162.23C286.282 161.766 290.055 159.799 293.778 157.857L300.546 154.328L300.541 148.607C300.538 145.46 300.499 138.48 300.455 133.094C300.356 121.028 300.355 119.86 300.429 110.862C300.486 103.932 300.673 94.3067 300.753 94.2144C300.773 94.1903 305.346 94.1545 310.915 94.1349C320.028 94.1029 321.075 94.1144 321.391 94.2503C321.613 94.3459 321.762 94.4836 321.798 94.6254C321.828 94.7486 321.679 105.402 321.466 118.3C321.253 131.198 321.091 142.183 321.106 142.713L321.134 143.675L346.504 130.11C360.458 122.65 371.893 116.528 371.915 116.505C371.937 116.483 372.058 113.597 372.184 110.092C372.643 97.2744 373.573 75.6907 373.779 73.0484L373.832 72.3684L367.836 75.3533C364.538 76.9951 358.476 80.0191 354.366 82.0734C350.255 84.1277 346.596 85.9272 346.234 86.0724C345.106 86.5249 342.711 87.2734 341.562 87.5325C339.859 87.9167 338.655 88.0575 337.057 88.0594C332.79 88.0644 330.127 86.683 327.277 82.9851C327.03 82.665 326.79 82.3882 326.743 82.3702C326.63 82.3268 324.706 79.7245 323.256 77.6544C322.618 76.7439 321.911 75.7984 321.685 75.5534C321.459 75.3085 321.275 75.0622 321.275 75.006C321.275 74.9498 320.273 73.5538 319.049 71.9036C317.825 70.2534 316.781 68.7899 316.729 68.6514C316.648 68.4387 316.672 68.3479 316.886 68.0665C317.199 67.6532 317.452 67.5635 317.751 67.7601C317.916 67.8694 318.212 67.9099 318.844 67.9099C319.608 67.9099 319.842 67.8651 320.811 67.5333C326.675 65.5247 342.239 57.6145 362.826 46.1802C365.023 44.9597 367.146 43.7405 367.544 43.471C367.941 43.2015 368.809 42.6638 369.471 42.276C370.133 41.8883 370.993 41.3425 371.381 41.0634C372.653 40.1472 375.921 38.0542 376.833 37.5714C377.066 37.4482 377.461 37.2195 377.712 37.0631C377.963 36.9068 378.428 36.6694 378.746 36.5357C379.064 36.4019 379.399 36.226 379.489 36.1447C379.998 35.6895 381.517 36.3645 382.284 37.3866C383.082 38.4501 383.542 39.773 383.934 42.1296C384.151 43.4313 384.38 44.3402 384.932 46.0831C385 46.2977 385.425 46.8809 385.992 47.5365C388.58 50.53 390.518 53.4639 391.389 55.7055C391.775 56.6988 391.968 57.6794 391.966 58.6298C391.962 60.1716 391.644 61.0183 390.685 62.0419C390.027 62.744 389.438 63.1289 388.198 63.6669C387.057 64.1619 386.072 64.8406 385.578 65.4725C385.361 65.75 385.242 66.3503 384.591 70.4453C382.885 81.1701 381.578 93.644 380.926 105.421C380.635 110.685 380.645 110.14 380.842 110.071C381.008 110.012 381.008 110.015 380.848 110.141C380.704 110.253 380.684 110.398 380.707 111.129L380.734 111.986L387.456 108.39C395.536 104.067 398.387 102.577 405.223 99.1034C408.093 97.6455 410.504 96.4002 410.582 96.3362C410.92 96.0567 414.376 94.1854 416.269 93.2565C418.242 92.2883 421.674 90.7752 422.474 90.5208C422.681 90.455 422.894 90.3665 422.947 90.3242C423.197 90.1265 425.517 89.3937 426.951 89.0595C428.139 88.7826 430.897 88.3122 432.345 88.1393C433.864 87.9579 437.431 87.9854 438.831 88.1893C441.365 88.5583 443.444 89.1769 445.829 90.2716C447.561 91.0665 448.54 91.6326 449.734 92.5307C450.651 93.2208 452.463 94.9331 452.98 95.5989L453.214 95.8999L464.307 95.2376L472.204 98.6363L472.259 102.394L494.877 117.558L494.938 118.632C494.972 119.223 495 121.315 495 123.28V126.853L494.788 126.943C494.672 126.993 493.776 127.164 492.796 127.322C491.817 127.481 491.013 127.621 491.01 127.632C491.006 127.644 491.027 128.42 491.055 129.356C491.083 130.293 491.096 131.075 491.083 131.095C491.069 131.115 489.439 131.575 487.459 132.117C485.48 132.659 483.311 133.253 482.64 133.437C481.969 133.622 481.306 133.832 481.167 133.905C480.667 134.165 480.22 133.973 478.652 132.826C477.539 132.011 477.141 131.769 476.915 131.77C476.754 131.771 475.775 131.875 474.741 132C473.707 132.126 472.247 132.28 471.496 132.342L470.13 132.457L458.095 122.905C451.476 117.651 445.734 113.087 445.335 112.762L444.611 112.171L444.635 104.207L444.659 96.244L445.881 96.1494L444.894 95.6876C440.5 93.6318 434.699 93.0233 429.526 94.0759C428.178 94.3501 421.466 96.8656 419.647 97.7782C419.04 98.0828 410.782 102.609 410.628 102.721C410.577 102.759 410.122 103.01 409.618 103.279C409.114 103.548 408.522 103.869 408.302 103.991C408.082 104.113 406.527 104.969 404.847 105.892C403.166 106.816 401.58 107.688 401.321 107.831C401.063 107.974 399.625 108.762 398.125 109.582C396.626 110.402 394.236 111.711 392.814 112.492C391.392 113.272 389.954 114.06 389.617 114.242C389.281 114.425 388.964 114.605 388.912 114.642C388.861 114.68 388.501 114.882 388.113 115.091C387.726 115.301 387.26 115.555 387.079 115.655C386.898 115.756 385.306 116.642 383.542 117.622L380.333 119.406L380.263 122.584C380.159 127.217 380.184 141.02 380.303 145.628C380.531 154.424 380.86 162.419 381.306 170.032C381.437 172.266 381.52 174.19 381.491 174.308C381.461 174.426 380.907 174.972 380.24 175.539C379.581 176.099 378.365 177.138 377.537 177.847C373.539 181.273 373.39 181.376 372.396 181.374C371.427 181.371 370.556 180.837 370.376 180.134C370.213 179.498 370.349 154.044 370.585 141.04C370.632 138.396 370.772 134.671 371.107 127.058C371.167 125.69 371.2 124.556 371.181 124.537C371.15 124.507 370.216 125.01 367.996 126.249C365.724 127.518 361.811 129.677 355.68 133.045C348.255 137.125 345.675 138.548 343.412 139.811C340.685 141.335 337.247 143.23 329.264 147.611C324.74 150.095 321.009 152.154 320.973 152.188C320.922 152.237 320.64 167.765 320.526 176.848C320.482 180.343 320.992 183.18 321.931 184.652C322.331 185.28 322.969 185.85 323.607 186.152C324.105 186.387 324.227 186.403 325.457 186.402C326.54 186.401 326.906 186.363 327.525 186.187C331.964 184.918 337.617 181.238 344.117 175.385C345.797 173.872 348.842 171.177 350.883 169.396C353.486 167.124 355.436 165.322 357.417 163.357C358.969 161.817 360.339 160.504 360.461 160.439C361.053 160.126 360.932 160.385 357.91 165.874C347.189 185.351 337.37 198.126 328.747 203.818C322.047 208.24 316.275 208.469 310.383 204.546C306.979 202.279 304.311 199.006 302.851 195.306C302.373 194.093 302.455 194.115 301.482 194.932C289.687 204.831 279.297 210.856 270.111 213.124C266.874 213.923 264.317 214.219 261.343 214.139C259.282 214.084 258.157 213.956 256.267 213.56C255.646 213.43 254.555 213.215 253.842 213.081C248.613 212.102 244.088 209.596 240.152 205.499C239.51 204.831 238.409 203.688 237.705 202.96C236.25 201.453 235.378 200.49 234.944 199.911C234.78 199.692 234.607 199.511 234.562 199.509C234.471 199.506 218.123 207.299 214.699 208.977C213.543 209.544 212.574 210.008 212.546 210.008C212.518 210.008 211.014 210.713 209.205 211.574C207.136 212.559 205.649 213.209 205.2 213.324C204.311 213.553 202.939 213.568 202.132 213.358C201.454 213.181 200.418 212.676 199.803 212.222C199.025 211.647 197.722 210.171 196.674 208.678C196.11 207.875 195.476 206.983 195.264 206.697C195.053 206.411 194.456 205.557 193.939 204.799C192.374 202.505 180.602 185.698 180.577 185.723C180.543 185.757 174.004 215.063 173.871 215.779C173.744 216.46 173.543 217.014 173.427 217C173.385 216.995 168.731 215.578 163.085 213.852L163.088 213.853ZM273.141 203.099C276.806 202.767 281.175 201.451 284.563 199.658C291.208 196.141 297.007 191.599 300.019 187.551C301.049 186.167 301 186.412 300.93 182.965C300.867 179.837 300.823 178.023 300.721 174.39C300.687 173.193 300.633 170.038 300.602 167.378L300.544 162.543L297.395 164.189C295.663 165.094 293.294 166.329 292.13 166.933C290.967 167.536 289.719 168.189 289.357 168.384C288.524 168.831 282.79 171.822 274.221 176.278C270.55 178.187 267.505 179.803 267.453 179.868C267.401 179.933 265.751 180.873 263.787 181.956C255.113 186.739 252.544 188.15 251.718 188.587C251.233 188.843 250.818 189.102 250.795 189.161C250.728 189.338 251.487 190.767 252.296 191.987C254.513 195.33 257.061 197.941 259.817 199.693C261.059 200.483 263.642 201.69 265.2 202.209C267.725 203.049 270.392 203.348 273.141 203.099ZM257.3 176.761C262.47 174.023 267.94 171.155 269.455 170.39C271.761 169.223 272.217 168.96 272.267 168.763C272.353 168.422 272.151 166.74 271.932 165.97C271.829 165.606 271.657 164.847 271.549 164.285C271.341 163.192 270.616 161.215 269.89 159.758C267.828 155.624 265.198 153.033 261.86 151.848C260.319 151.302 259.676 151.211 257.347 151.215C254.936 151.219 254.105 151.335 252.537 151.884C246.21 154.1 243.205 158.689 243.468 165.734C243.61 169.54 244.601 173.801 246.537 178.933C247.265 180.863 247.69 181.827 247.796 181.784C247.853 181.76 252.129 179.5 257.3 176.761ZM485.408 131.5C487.502 130.93 489.389 130.417 489.601 130.36L489.987 130.257L490.073 129.311C490.131 128.668 490.127 128.364 490.061 128.364C490.007 128.364 487.977 128.748 485.549 129.216C483.121 129.684 481.102 130.067 481.062 130.067C481.022 130.067 480.99 130.66 480.99 131.384V132.701L481.295 132.619C481.463 132.574 483.314 132.071 485.408 131.5ZM479.721 131.179C479.805 130.034 479.77 129.757 479.53 129.693C479.425 129.665 479.192 129.531 479.013 129.397C478.833 129.262 478.523 129.053 478.324 128.934L477.962 128.716L478.002 129.818L478.042 130.921L478.471 131.195C478.707 131.345 478.915 131.505 478.934 131.55C478.979 131.658 479.49 132.054 479.583 132.054C479.623 132.054 479.685 131.66 479.721 131.179ZM474.499 130.535C475.815 130.38 476.92 130.207 476.954 130.151C476.989 130.094 477.046 129.723 477.081 129.325C477.116 128.927 477.204 128.343 477.276 128.027C477.371 127.608 477.407 126.71 477.408 124.699L477.409 121.944L477.108 121.994C476.942 122.022 476.404 122.115 475.913 122.201L475.02 122.357L474.973 125.734C474.925 129.163 474.883 129.542 474.583 129.239C474.381 129.036 474.326 128.228 474.321 125.361C474.316 123.095 474.29 122.499 474.194 122.499C474.077 122.499 472.129 122.835 471.706 122.929L471.495 122.976V130.907L471.8 130.863C471.968 130.838 473.183 130.691 474.499 130.535ZM470.267 126.543L470.261 122.546L461.136 115.403C456.117 111.475 451.964 108.186 451.907 108.095C451.849 108.004 451.728 107.929 451.638 107.929C451.486 107.929 451.472 107.713 451.449 104.975L451.424 102.022L448.983 100.628C447.641 99.862 446.524 99.2533 446.502 99.2756C446.419 99.359 446.698 111.858 446.785 111.95C446.874 112.045 470.205 130.524 470.249 130.535C470.262 130.538 470.27 128.742 470.267 126.543ZM484.979 128.079C487.147 127.662 488.936 127.305 488.955 127.286C489.017 127.223 487.999 126.378 487.86 126.378C487.749 126.378 479.627 127.945 479.356 128.019C479.311 128.031 479.564 128.243 479.919 128.489C480.402 128.825 480.623 128.925 480.8 128.888C480.93 128.86 482.81 128.497 484.979 128.079ZM478.751 126.898C479.977 126.646 479.883 126.698 479.824 126.303C479.794 126.11 479.746 124.974 479.716 123.778C479.686 122.582 479.653 121.596 479.644 121.588C479.593 121.541 478.24 121.823 478.17 121.894C478.105 121.961 477.982 127.04 478.046 127.04C478.055 127.04 478.372 126.976 478.751 126.898ZM481.413 126.375C482.338 126.203 482.33 126.208 482.271 125.872C482.242 125.708 482.192 124.595 482.161 123.398C482.129 122.202 482.09 121.209 482.073 121.193C482.047 121.166 481.285 121.283 480.602 121.419L480.355 121.468L480.384 122.622C480.399 123.257 480.415 124.405 480.419 125.173L480.426 126.571L480.637 126.525C480.753 126.5 481.102 126.433 481.413 126.375ZM491.81 125.883L493.464 125.579L493.526 123.74C493.559 122.729 493.587 121.352 493.587 120.68V119.46L493.14 119.519C492.277 119.634 492.178 119.669 492.133 119.881C492.109 119.994 492.066 121.108 492.036 122.357C491.98 124.69 491.923 125.249 491.734 125.312C491.674 125.332 491.57 125.25 491.502 125.13C491.407 124.963 491.378 124.298 491.38 122.34L491.383 119.769L490.91 119.823C490.65 119.852 490.432 119.881 490.425 119.887C490.418 119.893 490.366 121.158 490.309 122.699C490.253 124.24 490.18 125.57 490.148 125.655C490.115 125.74 490.031 125.81 489.961 125.81C489.667 125.81 489.63 125.438 489.658 122.724L489.686 120.019L489.027 120.083C488.666 120.118 488.32 120.197 488.26 120.259C488.187 120.334 488.132 121.134 488.092 122.71C488.042 124.72 488.052 125.043 488.168 124.998C488.25 124.967 488.595 125.21 489.041 125.614C489.577 126.098 489.831 126.268 489.968 126.234C490.071 126.208 490.9 126.05 491.81 125.883ZM484.021 125.853L484.938 125.681V123.191C484.938 121.259 484.912 120.703 484.82 120.707C484.756 120.711 484.28 120.786 483.763 120.875L482.823 121.038L482.827 121.437C482.829 121.657 482.84 122.799 482.85 123.975C482.865 125.641 482.896 126.104 482.987 126.07C483.052 126.046 483.517 125.948 484.021 125.853ZM486.763 125.325L487.364 125.213L487.4 122.792C487.421 121.46 487.428 120.356 487.416 120.337C487.405 120.319 487.016 120.357 486.552 120.421C485.724 120.534 485.708 120.542 485.652 120.82C485.621 120.976 485.596 122.104 485.596 123.327V125.55L485.879 125.493C486.035 125.462 486.432 125.386 486.763 125.325ZM472.417 121.119C472.743 121.083 472.976 121.02 472.934 120.978C472.783 120.829 468.4 118.068 468.224 118.012C467.84 117.889 467.731 117.106 468.098 117.106C468.188 117.106 468.852 117.5 469.574 117.981C470.295 118.463 471.578 119.317 472.426 119.88L473.966 120.903L474.822 120.797C475.293 120.738 475.737 120.671 475.808 120.647C475.929 120.606 471.929 117.808 471.243 117.452C470.918 117.284 470.79 117.025 470.884 116.728C470.976 116.436 471.254 116.5 471.846 116.949C472.144 117.175 472.874 117.694 473.469 118.102C474.063 118.509 475.074 119.221 475.715 119.682L476.88 120.521L478.481 120.276L477.644 119.719C477.183 119.412 476.15 118.705 475.349 118.148C474.548 117.59 473.757 117.064 473.593 116.979C473.268 116.811 473.14 116.552 473.234 116.255C473.297 116.055 473.692 115.988 473.797 116.159C473.855 116.254 474.486 116.714 476.759 118.32C477.457 118.813 478.298 119.431 478.627 119.692L479.226 120.168L480.162 120.051C481.448 119.889 481.462 119.879 480.877 119.523C480.603 119.357 479.596 118.698 478.64 118.059C477.684 117.42 476.745 116.817 476.555 116.72C476.187 116.531 476.05 116.28 476.148 115.971C476.232 115.705 476.53 115.735 476.934 116.05C477.122 116.197 478.079 116.864 479.061 117.532C480.043 118.201 481.145 118.969 481.51 119.241L482.174 119.735L482.911 119.606C483.316 119.535 483.661 119.463 483.678 119.446C483.717 119.407 479.564 116.546 479.151 116.327C478.815 116.149 478.686 115.892 478.78 115.593C478.874 115.297 479.144 115.367 479.79 115.853C480.118 116.1 480.693 116.515 481.069 116.775C481.445 117.036 482.382 117.706 483.152 118.265C483.921 118.825 484.624 119.282 484.713 119.282C484.802 119.282 485.149 119.234 485.484 119.176C485.989 119.087 486.063 119.052 485.915 118.97C485.817 118.915 484.848 118.278 483.763 117.553C482.677 116.828 481.633 116.155 481.443 116.057C481.075 115.868 480.939 115.618 481.036 115.309C481.12 115.043 481.419 115.072 481.822 115.387C482.01 115.534 483.053 116.264 484.139 117.009C485.224 117.755 486.272 118.49 486.467 118.643C486.799 118.905 486.856 118.918 487.383 118.856C487.693 118.82 487.963 118.763 487.983 118.729C488.02 118.666 483.772 115.889 483.326 115.685C482.866 115.475 482.74 114.741 483.164 114.741C483.267 114.741 483.487 114.844 483.651 114.97C483.816 115.095 485.087 115.959 486.476 116.889L489.002 118.58L489.602 118.49C490.179 118.403 490.334 118.315 490.085 118.215C490.02 118.189 489.032 117.507 487.889 116.7C486.746 115.893 485.681 115.165 485.522 115.083C485.363 115 485.206 114.847 485.173 114.742C485.086 114.466 485.205 114.174 485.405 114.174C485.499 114.174 486.108 114.567 486.756 115.049C487.405 115.53 488.411 116.264 488.992 116.679C489.573 117.095 490.28 117.616 490.563 117.837C491.033 118.204 491.112 118.234 491.463 118.179C491.674 118.146 491.919 118.094 492.006 118.062C492.169 118.004 488.062 115.189 484.045 112.606C480.324 110.214 476.668 107.835 474.253 106.236L471.793 104.607L471.244 104.702C470.943 104.754 470.366 104.826 469.963 104.861C469.56 104.896 469.243 104.959 469.258 105.001C469.273 105.043 470.682 106.212 472.388 107.598C474.094 108.984 475.647 110.295 475.839 110.511L476.189 110.904L475.996 111.111C475.504 111.638 475.331 111.67 469.537 112.294C465.103 112.772 464.04 112.861 463.978 112.761C463.919 112.665 463.881 112.675 463.806 112.81C463.721 112.963 463.691 112.967 463.537 112.845C463.441 112.769 462.008 111.558 460.353 110.153C458.697 108.748 457.274 107.544 457.19 107.477C457.066 107.378 456.798 107.384 455.735 107.508C455.019 107.591 454.337 107.688 454.221 107.723C454.042 107.778 455.301 108.803 462.588 114.535C470.841 121.028 471.178 121.281 471.495 121.234C471.676 121.207 472.091 121.155 472.417 121.119ZM469.541 116.361C469.444 116.2 468.798 115.638 468.105 115.112C466.357 113.784 466.001 113.136 467.017 113.131C467.231 113.13 467.68 113.089 468.016 113.04C468.352 112.992 470.214 112.758 472.153 112.522C474.091 112.286 475.879 112.067 476.124 112.036C476.471 111.992 476.571 111.942 476.571 111.81C476.571 111.421 476.901 111.576 478.648 112.783C480.635 114.155 481.068 114.511 480.927 114.652C480.791 114.79 479.915 114.953 475.631 115.637C471.338 116.323 470.235 116.508 469.924 116.595C469.762 116.641 469.679 116.59 469.541 116.361ZM473.356 115.403C475.125 115.143 476.583 114.93 476.595 114.931C476.625 114.931 476.562 112.525 476.531 112.494C476.518 112.48 474.882 112.7 472.896 112.982C470.91 113.264 468.873 113.546 468.369 113.609C467.865 113.672 467.455 113.751 467.458 113.783C467.461 113.816 467.885 114.183 468.4 114.599C468.914 115.016 469.448 115.473 469.586 115.616C469.725 115.759 469.905 115.876 469.989 115.876C470.072 115.876 471.587 115.664 473.356 115.403ZM478.968 114.591C479.589 114.508 480.103 114.434 480.112 114.425C480.121 114.416 479.534 114.033 478.807 113.573C477.386 112.673 477.327 112.663 477.324 113.332C477.323 113.519 477.295 113.938 477.262 114.261L477.201 114.85L477.52 114.796C477.696 114.766 478.348 114.674 478.968 114.591ZM464.162 111.397C464.162 111.379 464.067 111.284 463.95 111.184L463.739 111.004L463.918 111.217C464.086 111.417 464.162 111.473 464.162 111.397ZM465.196 111.394C465.196 111.362 464.299 110.69 463.504 110.127C463.216 109.924 463.221 109.934 463.548 110.213C463.754 110.388 464.155 110.731 464.441 110.975C464.886 111.354 465.196 111.527 465.196 111.394ZM466.742 111.163C466.543 110.988 465.384 110.193 465.384 110.231C465.384 110.307 466.63 111.241 466.731 111.241C466.793 111.241 466.798 111.211 466.742 111.163ZM467.776 111.161C467.727 111.116 467.095 110.663 466.371 110.153C465.647 109.643 464.991 109.18 464.914 109.125C464.836 109.069 464.808 109.065 464.85 109.115C465.042 109.341 467.608 111.23 467.729 111.235C467.811 111.239 467.83 111.209 467.776 111.161ZM468.674 111.11C468.674 111.073 467.088 109.922 466.277 109.371C465.682 108.967 466.051 109.266 467.441 110.315C468.429 111.061 468.674 111.219 468.674 111.11ZM470.265 110.93C470.243 110.915 470.141 110.841 470.037 110.765C469.863 110.636 469.859 110.638 469.978 110.791C470.049 110.882 470.152 110.957 470.206 110.957C470.26 110.957 470.286 110.945 470.265 110.93ZM471.161 110.783C471.112 110.74 470.648 110.413 470.131 110.056C469.614 109.7 469.043 109.302 468.862 109.171C468.192 108.687 468.811 109.233 469.83 110.026C470.409 110.476 470.966 110.848 471.067 110.853C471.173 110.859 471.213 110.829 471.161 110.783ZM471.153 110.094C469.624 108.983 469.281 108.743 469.379 108.853C469.545 109.038 471.91 110.768 471.997 110.768C472.043 110.768 471.663 110.464 471.153 110.094ZM469.802 110.637C469.802 110.618 469.728 110.543 469.638 110.472C469.489 110.354 469.485 110.357 469.602 110.508C469.725 110.665 469.802 110.715 469.802 110.637ZM473.703 110.59C473.976 110.531 473.941 110.495 472.483 109.301C469.961 107.235 467.893 105.65 467.82 105.728C467.782 105.768 467.736 105.928 467.719 106.083C467.69 106.342 467.775 106.435 468.759 107.218C469.348 107.687 470.553 108.654 471.438 109.366C472.339 110.091 473.128 110.658 473.234 110.656C473.337 110.653 473.548 110.623 473.703 110.59ZM469.426 110.354C469.426 110.334 469.352 110.259 469.262 110.188C469.113 110.07 469.109 110.074 469.226 110.224C469.349 110.381 469.426 110.431 469.426 110.354ZM465.29 110.164C465.29 110.145 465.216 110.07 465.125 109.999C464.976 109.881 464.973 109.884 465.09 110.035C465.213 110.192 465.29 110.242 465.29 110.164ZM463.128 109.881C463.128 109.861 463.054 109.786 462.963 109.715C462.814 109.597 462.811 109.601 462.928 109.751C463.051 109.908 463.128 109.958 463.128 109.881ZM465.76 109.029C465.76 109.009 465.686 108.935 465.595 108.864C465.446 108.746 465.443 108.749 465.56 108.899C465.683 109.057 465.76 109.107 465.76 109.029ZM469.238 108.74C469.238 108.718 469.101 108.608 468.933 108.496L468.627 108.292L468.909 108.536C469.198 108.786 469.238 108.811 469.238 108.74ZM468.58 108.272C468.58 108.253 468.506 108.178 468.416 108.107C468.267 107.989 468.263 107.992 468.38 108.142C468.503 108.3 468.58 108.35 468.58 108.272ZM467.969 107.78C467.701 107.553 467.246 107.265 467.369 107.4C467.473 107.513 468.156 108.019 468.204 108.018C468.23 108.017 468.124 107.91 467.969 107.78ZM460.479 106.986C461.083 106.936 462.507 106.824 463.645 106.738C464.782 106.652 465.779 106.548 465.859 106.506C465.939 106.463 466.066 106.468 466.141 106.516C466.216 106.563 466.371 106.603 466.486 106.604C466.69 106.605 466.695 106.576 466.721 105.355L466.747 104.106L467.123 103.963C467.33 103.885 467.545 103.776 467.601 103.722C467.658 103.667 468.451 103.476 469.364 103.297L471.024 102.972V100.907L470.437 100.966C470.114 100.998 466.317 101.279 461.999 101.589C457.682 101.9 453.928 102.18 453.656 102.211L453.163 102.267V106.325L453.374 106.279C453.491 106.254 454.432 106.121 455.466 105.983L457.346 105.733L458.035 106.405C458.818 107.17 458.679 107.137 460.479 106.986ZM462.182 100.358C466.445 100.047 469.956 99.7928 469.985 99.792C470.014 99.7913 468.567 99.1989 466.77 98.4757L463.503 97.1608L462.258 97.2437C460.133 97.3851 456.64 97.6043 453.257 97.8082C451.473 97.9158 449.612 98.0339 449.121 98.0708L448.228 98.1378L453.21 101.015L453.821 100.968C454.157 100.943 457.92 100.668 462.182 100.358ZM349.803 168.667C349.835 168.615 349.88 168.572 349.902 168.572C349.925 168.572 349.944 168.615 349.944 168.667C349.944 168.719 349.899 168.762 349.844 168.762C349.79 168.762 349.771 168.719 349.803 168.667ZM355.302 163.996C355.302 163.976 355.376 163.902 355.467 163.83C355.616 163.712 355.619 163.716 355.502 163.866C355.38 164.023 355.302 164.074 355.302 163.996ZM361.184 162.206C361.219 162.113 361.272 162.06 361.301 162.089C361.33 162.119 361.301 162.195 361.237 162.259C361.144 162.352 361.133 162.341 361.184 162.206ZM358.264 161.382C358.357 161.278 358.455 161.193 358.481 161.193C358.507 161.193 358.451 161.278 358.358 161.382C358.264 161.486 358.166 161.572 358.14 161.572C358.115 161.572 358.17 161.486 358.264 161.382ZM334.662 135.986C334.762 135.905 334.886 135.838 334.936 135.838C335.055 135.838 335.002 135.882 334.714 136.02C334.493 136.126 334.49 136.124 334.662 135.986ZM294.103 128.062C292.48 126.708 289.3 123.514 288.234 122.168C285.936 119.265 284.447 116.429 283.716 113.559C283.274 111.824 283.166 110.785 283.221 108.804C283.276 106.876 283.477 105.682 284.038 103.961C285.658 98.9972 289.091 94.4371 295.259 89.0595C295.806 88.5824 296.067 88.4171 296.289 88.407C296.759 88.3858 296.71 88.6266 296.073 89.4792C289.897 97.7447 287.336 106.198 288.655 113.965C289.476 118.798 291.778 123.718 295.247 128.057C295.549 128.433 295.795 128.827 295.795 128.932C295.795 129.341 295.377 129.126 294.103 128.062ZM324.749 128.931C324.749 128.826 324.996 128.433 325.297 128.056C327.112 125.787 328.801 123.015 329.928 120.455C333.998 111.208 332.661 101.569 325.919 91.5462C325.441 90.8348 324.789 89.9045 324.471 89.479C323.834 88.6264 323.786 88.3856 324.255 88.4068C324.478 88.4169 324.739 88.5822 325.286 89.0593C332.269 95.1492 335.947 100.465 337.069 106.09C337.329 107.396 337.422 110.053 337.255 111.406C336.817 114.953 335.154 118.57 332.309 122.168C331.246 123.512 328.066 126.706 326.441 128.062C325.166 129.126 324.749 129.34 324.749 128.931ZM280.242 122.737C278.702 121.534 277.775 120.709 276.687 119.576C269.537 112.128 270.65 104.457 280.04 96.4743C281.461 95.2662 281.7 95.1031 281.923 95.1892C282.193 95.2937 282.075 95.6353 281.508 96.3846C279.441 99.1169 277.795 102.402 277.078 105.222C276.726 106.609 276.605 107.483 276.551 109.019C276.47 111.343 276.735 113.185 277.477 115.451C278.161 117.542 279.861 120.683 281.329 122.567C281.862 123.251 281.921 123.539 281.528 123.539C281.346 123.539 280.963 123.301 280.242 122.737ZM338.757 123.348C338.757 123.243 338.963 122.892 339.216 122.568C341.237 119.972 343.027 116.262 343.63 113.417C344.199 110.732 344.142 107.88 343.467 105.222C342.75 102.402 341.104 99.117 339.037 96.3847C338.47 95.6353 338.351 95.2937 338.622 95.1892C338.845 95.1031 339.084 95.2663 340.505 96.4744C347.66 102.557 350.011 108.49 347.552 114.256C346.337 117.107 343.982 119.862 340.303 122.737C339.581 123.301 339.199 123.539 339.016 123.539C338.818 123.539 338.757 123.494 338.757 123.348ZM269.943 118.649C269.71 118.41 268.991 117.697 268.345 117.063C266.064 114.827 264.866 112.669 264.573 110.272C264.314 108.151 265.028 105.815 266.633 103.534C267.334 102.539 270.219 99.604 270.498 99.604C270.776 99.604 270.851 99.8607 270.66 100.16C270.318 100.695 269.531 102.331 269.179 103.238C267.723 106.992 267.606 110.707 268.826 114.457C269.142 115.428 270.18 117.694 270.566 118.257C270.7 118.453 270.791 118.7 270.773 118.825C270.721 119.193 270.409 119.127 269.943 118.649ZM349.819 119.03C349.696 118.906 349.759 118.547 349.945 118.309C350.277 117.885 351.343 115.58 351.683 114.552C352.943 110.744 352.838 107.033 351.366 103.238C351.014 102.331 350.227 100.694 349.886 100.16C349.698 99.866 349.768 99.6039 350.034 99.6039C350.277 99.6039 352.633 101.9 353.439 102.923C355.208 105.166 355.949 107.067 356.013 109.526C356.032 110.275 356.021 110.86 355.988 110.826C355.955 110.793 355.854 111.06 355.763 111.419C355.222 113.566 353.65 115.879 351.358 117.903C350.834 118.365 350.364 118.822 350.313 118.918C350.221 119.09 349.942 119.153 349.819 119.03Z" fill="white"/>
</svg>
