<?xml version="1.0" standalone="no"?>
<!DOCTYPE svg PUBLIC "-//W3C//DTD SVG 20010904//EN"
 "http://www.w3.org/TR/2001/REC-SVG-20010904/DTD/svg10.dtd">
<svg version="1.0" xmlns="http://www.w3.org/2000/svg"
 width="2000.000000pt" height="2000.000000pt" viewBox="0 0 2000.000000 2000.000000"
 preserveAspectRatio="xMidYMid meet">
<metadata>
Created by potrace 1.14, written by Peter Selinger 2001-2017
</metadata>
<g transform="translate(0.000000,2000.000000) scale(0.100000,-0.100000)"
fill="#000000" stroke="none">
<path d="M17680 14971 c-64 -37 -775 -285 -980 -342 -19 -6 -50 -14 -67 -20
-53 -15 -101 -28 -135 -38 -18 -5 -161 -46 -318 -91 -378 -108 -492 -139 -595
-161 -27 -6 -68 -15 -90 -20 -404 -91 -822 -105 -1150 -40 -27 6 -60 13 -72
17 -15 4 -25 1 -29 -9 -16 -43 103 -476 178 -647 158 -360 319 -526 584 -602
68 -19 102 -22 239 -22 173 1 250 15 640 114 154 40 206 54 368 99 29 9 121
36 297 89 36 11 130 41 210 67 335 109 330 108 330 63 0 -13 -22 -111 -49
-218 -27 -107 -128 -509 -225 -893 -96 -383 -182 -713 -191 -731 -21 -45 -41
-57 -150 -94 -328 -112 -653 -171 -933 -172 -178 0 -249 19 -314 87 -47 49
-73 109 -108 258 -73 306 -200 583 -326 709 -115 115 -305 125 -451 24 -79
-54 -166 -195 -243 -393 -13 -33 -31 -72 -40 -87 l-16 -28 -18 58 c-22 71
-105 244 -153 320 -69 108 -150 207 -234 285 -112 103 -152 122 -254 122 -70
0 -88 -4 -140 -31 -34 -18 -94 -44 -135 -58 -86 -31 -90 -33 -316 -142 -95
-45 -187 -87 -205 -92 -19 -6 -200 -38 -404 -72 -203 -33 -395 -64 -425 -70
-30 -5 -86 -14 -125 -20 -38 -6 -90 -15 -115 -20 -25 -4 -79 -13 -120 -20 -41
-6 -97 -15 -125 -21 -48 -9 -686 -114 -1455 -239 -201 -33 -387 -64 -415 -69
-27 -5 -81 -15 -120 -21 -38 -6 -95 -15 -125 -20 -30 -6 -192 -32 -360 -60
-168 -27 -485 -79 -705 -115 -797 -130 -755 -122 -755 -149 0 -11 4 -46 10
-76 134 -784 157 -930 151 -934 -3 -2 -46 -15 -96 -31 -49 -15 -115 -36 -145
-45 -30 -10 -102 -33 -160 -50 -58 -18 -130 -40 -160 -50 -99 -31 -118 -33
-124 -13 -12 44 -76 271 -106 383 -37 135 -42 155 -50 180 -4 14 -18 63 -30
110 -12 47 -26 95 -31 108 -13 33 -11 55 4 46 6 -4 4 2 -6 13 -10 11 -20 30
-22 42 -2 13 -7 31 -10 41 -3 10 -8 27 -10 37 -2 10 -11 41 -19 68 -12 42 -48
170 -132 475 -9 30 -25 89 -35 130 -11 41 -25 90 -30 108 -26 90 -69 246 -104
380 -14 51 -38 135 -65 232 -6 19 -39 143 -75 275 -36 132 -69 256 -75 275 -5
19 -20 73 -33 120 -15 52 -30 86 -39 88 -8 1 -52 -18 -99 -44 -46 -25 -106
-59 -134 -74 -27 -15 -86 -47 -130 -70 -83 -44 -116 -62 -325 -176 -69 -37
-147 -79 -175 -94 -27 -15 -124 -67 -215 -117 -91 -49 -205 -111 -255 -138
-49 -26 -94 -51 -100 -55 -5 -4 -54 -30 -107 -59 -54 -28 -117 -62 -140 -75
-24 -13 -108 -58 -188 -101 -150 -81 -204 -110 -302 -164 -32 -17 -83 -44
-113 -61 -30 -16 -81 -44 -112 -61 -32 -18 -80 -44 -108 -59 -27 -15 -90 -49
-140 -76 -49 -27 -103 -56 -120 -65 -36 -19 -43 -32 -95 -171 -40 -108 -92
-245 -156 -413 -18 -49 -70 -187 -114 -305 -81 -214 -135 -357 -150 -395 -4
-11 -17 -45 -28 -75 -11 -30 -34 -91 -50 -135 -17 -44 -65 -172 -107 -285 -42
-113 -95 -252 -117 -310 -22 -58 -53 -140 -69 -182 -16 -43 -42 -113 -59 -155
-16 -43 -72 -193 -125 -333 -53 -140 -110 -291 -126 -335 -17 -44 -40 -105
-51 -135 -11 -30 -24 -64 -28 -75 -19 -48 -174 -458 -280 -745 -15 -41 -33
-88 -40 -105 -7 -16 -25 -64 -40 -105 -16 -41 -42 -111 -58 -155 -17 -44 -69
-183 -117 -310 -48 -126 -100 -266 -117 -310 -16 -44 -43 -116 -60 -160 -16
-44 -42 -114 -58 -155 -63 -171 -152 -406 -160 -425 -4 -11 -18 -47 -30 -80
-12 -33 -26 -69 -30 -80 -4 -11 -22 -58 -40 -105 -18 -47 -36 -94 -40 -105 -4
-11 -22 -56 -38 -100 -29 -76 -63 -166 -147 -389 -21 -55 -40 -119 -43 -142
l-4 -43 552 -1 c304 0 555 -2 559 -4 3 -2 380 -7 836 -11 l830 -7 220 326
c121 179 289 426 372 548 84 123 156 230 159 238 4 8 10 17 14 20 3 3 73 104
155 225 81 121 151 224 155 228 4 4 22 -45 39 -110 18 -65 37 -129 41 -143 4
-14 15 -50 23 -80 9 -30 74 -264 146 -520 126 -447 141 -501 192 -672 l23 -78
1658 0 1658 0 0 23 c0 12 -16 79 -35 147 -44 155 -50 177 -75 270 -22 82 -38
139 -51 185 -5 17 -18 64 -29 105 -11 41 -25 91 -30 110 -12 41 -102 370 -131
479 -11 42 -27 100 -35 128 -8 29 -21 78 -29 108 -8 30 -22 80 -30 110 -8 30
-22 81 -31 112 -9 32 -19 72 -24 88 -5 17 -15 55 -24 85 -33 122 -209 761
-233 850 -14 52 -34 127 -45 165 -11 39 -26 94 -34 123 -13 50 -35 127 -55
202 -6 19 -14 49 -19 65 -7 26 -33 121 -59 220 -19 72 -136 499 -162 595 -16
58 -34 123 -40 145 -6 22 -15 51 -19 65 -4 14 -18 63 -30 110 -12 47 -26 96
-30 110 -4 14 -22 79 -40 145 -18 66 -45 163 -60 216 l-27 96 31 11 c39 13
184 58 341 107 66 21 160 50 209 66 49 16 90 28 91 27 1 -2 10 -50 19 -108 9
-58 30 -184 46 -280 17 -96 53 -308 81 -470 27 -162 54 -320 60 -350 5 -30 13
-82 19 -115 8 -56 48 -290 186 -1105 30 -179 60 -352 65 -385 17 -107 27 -167
58 -345 17 -96 50 -294 75 -440 25 -146 57 -332 71 -415 14 -82 30 -177 35
-210 5 -33 23 -141 40 -240 78 -455 102 -594 110 -645 4 -30 11 -67 14 -83 3
-15 8 -39 11 -53 5 -23 10 -25 33 -20 35 9 103 23 172 35 30 5 116 21 190 35
74 14 149 27 165 29 17 3 77 14 135 26 228 45 279 55 370 71 36 6 83 15 105
20 22 5 69 14 105 20 36 6 83 15 105 20 22 5 67 13 100 19 33 6 105 19 160 30
55 11 152 29 215 41 63 12 160 30 215 41 55 11 125 24 155 29 30 5 90 17 132
25 94 18 101 18 93 3 -4 -7 -1 -6 7 3 8 10 52 23 113 33 55 10 143 26 195 36
52 10 147 28 210 40 63 12 158 30 210 40 52 10 147 28 210 40 63 12 135 25
160 30 25 5 74 14 110 20 36 6 83 15 105 20 39 9 53 11 160 30 63 11 712 133
820 154 44 9 105 21 135 26 30 5 102 19 160 30 58 11 130 25 160 30 30 5 100
18 155 29 86 17 199 38 375 71 25 4 70 13 100 19 68 14 215 41 378 71 84 16
126 28 130 38 3 8 -14 103 -37 211 -62 291 -120 560 -132 611 -18 77 -28 122
-49 225 -20 96 -28 132 -50 228 -5 23 -30 139 -55 257 -25 118 -50 233 -55
255 -5 22 -21 96 -36 165 -15 69 -31 135 -35 148 -10 25 -35 28 -133 12 -34
-5 -131 -19 -216 -30 -85 -11 -182 -25 -215 -30 -33 -5 -98 -14 -145 -20 -47
-6 -114 -15 -150 -20 -126 -18 -217 -30 -360 -50 -193 -26 -271 -37 -358 -51
-40 -6 -79 -9 -86 -6 -7 3 -16 20 -19 39 -3 18 -35 195 -72 393 -36 198 -75
412 -86 475 -11 63 -27 149 -35 190 -8 41 -19 102 -25 135 -6 33 -14 80 -19
105 -5 25 -14 74 -20 110 -13 72 -22 123 -41 218 -6 34 -10 64 -8 67 8 7 661
136 666 131 5 -4 -65 -261 -91 -335 -24 -67 -21 -121 9 -153 63 -68 293 -201
462 -269 136 -54 167 -63 225 -63 91 -1 110 27 178 254 17 58 40 134 51 170
10 36 24 83 30 105 6 22 15 51 19 65 5 14 34 106 65 205 94 294 192 539 260
645 61 95 135 166 135 130 0 -23 211 -439 260 -514 96 -147 210 -248 335 -296
52 -21 78 -24 200 -24 77 -1 176 5 220 13 44 7 118 20 165 28 47 8 135 23 195
33 227 39 389 65 465 75 25 3 57 8 73 11 26 5 27 4 27 -39 0 -37 -12 -104 -57
-307 -3 -14 -28 -108 -55 -210 -141 -527 -163 -632 -208 -976 -19 -141 -14
-382 10 -475 11 -45 20 -83 20 -85 0 -2 9 -4 20 -4 22 0 65 41 125 118 48 61
82 80 152 81 180 3 217 96 248 621 32 566 60 820 121 1125 43 215 56 250 104
278 16 10 102 42 192 73 148 50 239 82 293 104 11 4 45 17 75 28 60 22 395
155 448 178 17 8 47 20 65 28 17 8 53 23 80 35 26 12 68 30 95 42 26 12 74 34
107 49 33 15 83 38 110 50 296 133 570 271 710 358 92 58 234 169 287 225 104
110 169 280 162 428 -5 122 -42 228 -124 349 -59 89 -65 112 -64 245 1 66 6
138 12 160 6 22 14 70 17 108 6 56 5 67 -8 67 -8 0 -57 -29 -108 -64 -89 -60
-306 -196 -314 -196 -2 0 -27 -14 -55 -30 -61 -36 -317 -166 -415 -210 -38
-18 -92 -43 -120 -55 -242 -111 -1093 -450 -1103 -441 -6 7 62 287 148 611
115 433 246 834 325 1000 50 104 89 161 166 242 96 102 141 173 175 278 27 85
25 255 -5 390 -12 55 -26 125 -31 155 -28 170 -46 298 -60 431 -14 130 -20
139 -77 139 -27 0 -55 -4 -63 -9z"/>
<path d="M6610 11121 c0 -6 4 -13 10 -16 6 -3 7 1 4 9 -7 18 -14 21 -14 7z"/>
</g>
</svg>
