<?xml version="1.0" standalone="no"?>
<!DOCTYPE svg PUBLIC "-//W3C//DTD SVG 20010904//EN"
 "http://www.w3.org/TR/2001/REC-SVG-20010904/DTD/svg10.dtd">
<svg version="1.0" xmlns="http://www.w3.org/2000/svg"
 width="700.000000pt" height="700.000000pt" viewBox="0 0 700.000000 700.000000"
 preserveAspectRatio="xMidYMid meet">
<metadata>
Created by potrace 1.14, written by Peter Selinger 2001-2017
</metadata>
<g transform="translate(0.000000,700.000000) scale(0.100000,-0.100000)"
fill="#000000" stroke="none">
<path d="M4730 6779 c-19 -5 -84 -7 -145 -4 l-110 6 -1170 -259 c-643 -143
-1207 -265 -1252 -271 -278 -39 -559 -195 -746 -414 l-48 -56 95 -138 94 -138
-30 -35 c-91 -106 -184 -285 -244 -470 l-38 -116 -65 24 c-86 31 -123 24 -176
-32 -33 -34 -43 -54 -57 -116 -70 -304 -58 -632 37 -1007 30 -117 124 -375
144 -396 4 -4 56 15 114 42 63 29 107 45 107 38 0 -7 27 -65 60 -130 67 -134
174 -300 276 -430 38 -49 73 -95 79 -102 6 -10 -6 -43 -42 -112 -28 -54 -54
-112 -57 -128 -8 -36 15 -119 40 -146 10 -12 14 -23 8 -28 -5 -4 -320 -67
-701 -140 -500 -95 -702 -130 -727 -125 l-36 6 0 -630 0 -630 48 -10 c26 -6
750 -142 1609 -303 l1563 -294 0 -27 c0 -33 10 -34 88 -14 45 12 65 13 123 1
l69 -13 0 32 0 31 1610 414 1610 415 0 647 0 647 -62 -5 c-58 -4 -1471 157
-1483 169 -2 2 -7 35 -11 74 l-6 69 263 54 c145 29 289 61 319 70 107 32 247
195 342 399 59 124 135 365 166 522 22 114 30 140 45 142 15 2 8 17 -39 80
l-57 76 -2 299 c-2 321 -13 429 -69 666 l-26 109 39 54 c38 52 38 55 29 106
-50 273 -266 664 -533 966 -62 70 -77 81 -133 100 -61 20 -66 20 -146 5 l-84
-16 -53 35 c-155 101 -335 173 -511 203 l-38 6 0 119 c0 135 3 131 -80 109z
m154 -529 c77 -19 94 -26 85 -33 -2 -2 -409 -86 -904 -186 -495 -100 -909
-186 -921 -191 -16 -6 -23 -21 -28 -60 -7 -55 -11 -57 -69 -35 -10 4 -20 -11
-36 -54 l-23 -59 -63 44 c-35 24 -116 70 -181 101 -65 31 -114 58 -108 60 19
6 1344 295 1659 362 182 38 339 72 350 75 35 9 156 -4 239 -24z m699 -236
c145 -164 314 -431 390 -616 15 -35 14 -36 -6 -42 -22 -5 -1581 -345 -1916
-417 -101 -22 -187 -36 -191 -32 -4 4 -24 51 -44 103 -74 185 -203 414 -308
548 -32 41 -44 64 -36 67 7 2 126 26 263 54 361 72 1800 366 1813 370 1 1 17
-15 35 -35z m-3430 -196 c10 -89 23 -165 29 -169 6 -4 38 -10 71 -14 87 -9
230 -49 325 -89 122 -51 227 -120 317 -207 78 -76 115 -99 157 -99 57 0 138
70 107 92 -11 8 -11 9 3 4 13 -4 21 9 39 62 l22 66 34 -39 c97 -112 238 -362
315 -560 52 -133 52 -132 27 -140 -12 -4 -64 -27 -115 -52 l-92 -45 20 -66
c32 -109 66 -281 84 -418 22 -168 22 -472 1 -614 -9 -57 -15 -105 -14 -106 1
-1 57 -25 125 -54 67 -29 122 -57 122 -64 0 -25 -61 -247 -90 -331 -47 -131
-148 -325 -170 -325 -4 0 -49 62 -100 138 -51 75 -96 140 -100 145 -3 4 -30
-24 -59 -62 -29 -38 -63 -77 -77 -85 -57 -38 -294 -124 -644 -235 l-55 -18 -3
-147 -3 -148 -36 7 c-168 31 -395 132 -487 216 l-56 51 75 144 c41 78 75 145
75 148 0 3 -28 36 -62 73 -202 223 -388 513 -453 708 -35 103 -48 127 -85 159
-40 33 -101 35 -172 4 -39 -17 -52 -18 -58 -9 -13 22 -58 219 -76 336 -18 118
-23 447 -8 496 l9 26 122 -52 c104 -45 123 -51 127 -36 3 9 17 77 31 151 55
279 152 514 259 629 18 20 74 54 140 86 l109 51 -100 115 c-54 63 -114 136
-133 163 l-33 49 29 24 c124 102 334 191 474 202 13 1 19 -28 33 -161z m3859
-983 c26 -136 48 -339 48 -440 l0 -90 -1127 -255 -1128 -256 -7 96 c-17 223
-30 350 -48 449 -11 58 -18 107 -15 109 7 7 2220 480 2240 479 17 -2 22 -16
37 -92z m68 -1202 c-52 -199 -131 -381 -210 -487 -55 -75 -67 -82 -160 -101
-202 -40 -1776 -373 -1887 -400 -20 -5 -18 3 27 99 63 135 104 251 144 405
l31 124 440 98 c242 54 708 159 1035 233 327 73 598 134 602 135 3 1 -6 -47
-22 -106z m-2785 -1234 c43 -60 74 -113 70 -117 -4 -4 -153 -37 -331 -73
l-324 -67 0 92 0 91 159 54 c87 29 199 71 247 91 49 21 92 38 96 39 4 1 41
-49 83 -110z m2155 -169 c283 -33 521 -61 529 -63 8 -1 -84 -26 -205 -55 -120
-30 -374 -92 -564 -139 -1268 -310 -1694 -413 -1719 -413 -15 0 -547 85 -1182
189 -635 105 -1178 193 -1206 197 -29 3 -53 9 -53 13 0 3 190 43 423 87 l422
82 59 -30 c55 -28 242 -94 332 -117 47 -12 48 -16 59 -123 7 -61 10 -68 29
-68 11 1 577 115 1256 255 781 161 1248 252 1270 249 19 -2 267 -31 550 -64z
m1130 -579 c0 -334 -1 -360 -17 -365 -10 -3 -632 -163 -1383 -356 -751 -193
-1404 -362 -1452 -375 l-88 -24 0 368 0 367 1458 371 c801 205 1463 372 1470
372 9 1 12 -77 12 -358z m-5455 9 c368 -61 1021 -168 1450 -238 l780 -127 3
-389 2 -388 -22 5 c-13 3 -529 101 -1148 217 -619 116 -1267 238 -1440 271
-173 32 -318 59 -322 59 -5 0 -8 158 -8 350 0 325 1 350 17 350 10 0 319 -50
688 -110z"/>
<path d="M2215 4711 c-247 -88 -451 -164 -453 -171 -4 -12 297 -1200 307
-1212 5 -6 966 274 977 284 2 3 -75 285 -171 627 -96 343 -175 625 -175 627 0
13 -78 -12 -485 -155z m301 -228 c4 -16 49 -174 99 -353 51 -179 91 -326 90
-328 -7 -9 -431 -129 -436 -123 -10 10 -180 683 -175 689 8 7 388 141 403 141
7 1 16 -11 19 -26z"/>
</g>
</svg>
