<svg xmlns="http://www.w3.org/2000/svg" width="1.2em" height="1.2em" viewBox="0 0 745 744" {...$$props}>
<path d="M372.436 744C578.126 744 744.871 577.45 744.871 372C744.871 166.55 578.126 0 372.436 0C166.745 0 0 166.55 0 372C0 577.45 166.745 744 372.436 744Z" fill="#0180FF"/>
<path d="M402.927 169.883L562.792 536.22C563.663 538.834 563.663 541.447 561.92 543.625C560.614 545.803 558 547.11 555.386 547.11H518.361C512.698 547.11 507.471 543.625 505.293 538.398L372.871 219.541L240.45 538.398C238.272 543.625 233.044 547.11 227.817 547.11H189.92C187.307 547.11 184.693 545.803 183.386 543.625C182.08 541.447 181.644 538.834 182.515 536.22L342.815 170.319C345.864 163.349 352.834 158.557 360.674 158.557H384.632C392.473 158.122 399.878 162.913 402.927 169.883Z" fill="#F9F9FA" stroke="white" stroke-width="10.6721"/>
</svg>
